# xmcd CD database file
#
# Track frame offsets:
#	150
#	15620
#	51288
#	66738
#	96091
#	110169
#	124386
#	141435
#	170188
#	198503
#
# Disc length: 2896 seconds
#
# Revision: 0
# Processed by: cddbd v1.5PL3 Copyright (c) Steve Scherf et al.
# Submitted via: CDex 1.40Release
#
DISCID=a40b4e0a
DTITLE=LIttle Milton  - Waiting for LIttle Milton
DYEAR=1900
DGENRE=Blues
TTITLE0=Monologue
TTITLE1=That's how stong my love is
TTITLE2=What it is
TTITLE3=Little Blue Bird
TTITLE4=It's Amazing
TTITLE5=Who can handle me is you
TTITLE6=Woman you don't have to be so cold
TTITLE7=The thrill is gone
TTITLE8=Walk the back streets and cry
TTITLE9=The Blues is alright with me
EXTD=ID3G: 0
EXTT0=
EXTT1=
EXTT2=
EXTT3=
EXTT4=
EXTT5=
EXTT6=
EXTT7=
EXTT8=
EXTT9=
PLAYORDER=
